<?xml version="1.0" encoding="UTF-8" standalone="no"?><!-- Generator: Gravit.io --><svg xmlns="http://www.w3.org/2000/svg" xmlns:xlink="http://www.w3.org/1999/xlink" style="isolation:isolate" viewBox="0 0 1080 1080" width="1080pt" height="1080pt"><defs><clipPath id="_clipPath_JdijmCssDPoJIX01T9oRmYOvDyyMmKgc"><rect width="1080" height="1080"/></clipPath></defs><g clip-path="url(#_clipPath_JdijmCssDPoJIX01T9oRmYOvDyyMmKgc)"><g style="isolation:isolate"><path d=" M 645.778 212 L 714.648 331.287 L 889.297 633.787 L 814.824 633.787 L 814.824 701.575 L 992.397 701.575 L 766.198 309.787 L 677.409 156 L 677.409 156 L 676 156 L 613.446 156 L 466.554 156 L 404 156 L 402.591 156 L 402.591 156 L 313.802 309.787 L 87.603 701.575 L 265.176 701.575 L 265.176 633.787 L 190.703 633.787 L 365.352 331.287 L 434.222 212 L 645.778 212 Z " fill-rule="evenodd" fill="rgb(255,255,255)"/><path d=" M 589.616 532.102 L 621.92 588.055 L 703.839 729.943 L 668.907 729.943 L 668.907 761.739 L 752.198 761.739 L 646.099 577.97 L 604.452 505.835 L 604.452 505.835 L 603.791 505.835 L 574.45 505.835 L 505.55 505.835 L 476.209 505.835 L 475.548 505.835 L 475.548 505.835 L 433.901 577.97 L 327.802 761.739 L 411.093 761.739 L 411.093 729.943 L 376.161 729.943 L 458.08 588.055 L 490.384 532.102 L 589.616 532.102 Z " fill-rule="evenodd" fill="rgb(235,235,235)"/><g clip-path="url(#_clipPath_3vshvOZ846FzyKmnr1dPfnEBKijUXNUY)"><text transform="matrix(1,0,0,1,242,893.117)" style="font-family:'IBM Plex Mono';font-weight:400;font-size:110px;font-style:normal;fill:#ffffff;stroke:none;">Afterlife </text><text transform="matrix(1,0,0,1,407,1036.117)" style="font-family:'IBM Plex Mono';font-weight:400;font-size:110px;font-style:normal;fill:#ffffff;stroke:none;">Labs</text></g><defs><clipPath id="_clipPath_3vshvOZ846FzyKmnr1dPfnEBKijUXNUY"><rect x="0" y="0" width="904.794" height="281.633" transform="matrix(1,0,0,1,87.603,780.367)"/></clipPath></defs></g></g></svg>